Coordinates
version=1
nRows=12
nColumns=34
inDegrees=yes

Units are S.I. units (second, meters, Newtons, ...)
If the header above contains a line with 'inDegrees', this indicates whether rotational values are in degrees (yes) or radians (no).

endheader
time	pelvis_tilt	pelvis_list	pelvis_rotation	pelvis_tx	pelvis_ty	pelvis_tz	hip_flexion_r	hip_adduction_r	hip_rotation_r	knee_angle_r	ankle_angle_r	subtalar_angle_r	mtp_angle_r	hip_flexion_l	hip_adduction_l	hip_rotation_l	knee_angle_l	ankle_angle_l	subtalar_angle_l	mtp_angle_l	lumbar_extension	lumbar_bending	lumbar_rotation	arm_flex_r	arm_add_r	arm_rot_r	elbow_flex_r	pro_sup_r	arm_flex_l	arm_add_l	arm_rot_l	elbow_flex_l	pro_sup_l
      4.91666670	    -16.15134775	      1.34964303	      0.48435187	      0.80831180	      0.86885949	     -0.09485781	     48.13450767	     -7.91985638	     -0.29153656	     57.45441221	     24.68449860	    -14.59229932	      0.00000000	     47.21903076	     -5.74297162	     -0.00931149	     55.74402043	     23.42219903	     -8.18608027	      0.00000000	    -16.40169291	     -0.86602308	     -0.26801557	     13.73273620	    -14.53887791	     32.22908410	     25.14920623	     63.25036981	     15.72868859	    -10.14874631	      8.21178266	     44.36476059	     77.23145421
      4.93333330	    -15.74177320	      1.27912966	      0.65994186	      0.80477290	      0.85328811	     -0.10153577	     51.72546335	     -8.55207017	      0.22198387	     64.20637807	     28.71146456	    -13.02258384	      0.00000000	     50.55272372	     -5.88173002	      0.22307568	     62.33618563	     28.10263808	     -7.03428927	      0.00000000	    -19.51087940	     -0.62653645	     -0.61672447	     16.49128775	    -13.99495603	     31.04956276	     24.95104613	     64.04617791	     18.82136725	     -8.59037020	      8.17642910	     41.97115413	     77.79830301
      4.95000000	    -16.12703518	      1.34061286	      0.59392162	      0.79627417	      0.83465040	     -0.10437797	     55.33951636	     -9.26943503	      0.50516436	     69.17409618	     31.12013778	    -11.30259090	      0.00000000	     54.10770915	     -6.07617779	      0.15416970	     67.45356972	     31.40975052	     -5.65207169	      0.00000000	    -21.38188093	     -0.70853052	      0.71603034	     16.51040333	    -13.50166139	     20.67140031	     27.58093365	     74.49775399	     23.24953304	     -6.86664272	     11.36609215	     37.50786219	     85.07743965
      4.96666670	    -17.23406034	      1.62023291	      0.55325853	      0.78715634	      0.82790219	     -0.10347023	     58.48074833	     -9.98694362	      0.70072282	     71.57759969	     32.60192207	     -9.18997528	      0.00000000	     57.25609900	     -6.22717114	     -0.30124483	     70.22094424	     32.65062354	     -4.35512128	      0.00000000	    -22.27488553	     -0.82186982	     -0.32876064	     19.00342251	    -12.55245506	     20.66611451	     28.42741633	     75.10147776	     24.58119678	     -6.32149156	     10.93134133	     36.19958934	     85.18694598
      4.98333330	    -18.48875488	      2.02623405	      0.44801857	      0.78769787	      0.82383587	     -0.10618803	     60.64397303	    -10.69402794	      0.83773577	     72.29432789	     33.19178562	     -7.27819039	      0.00000000	     59.36391438	     -6.30162262	     -0.97206792	     71.23383032	     32.96787680	     -3.32185133	      0.00000000	    -22.19040183	     -1.01132938	     -1.02022512	     20.33811297	    -11.83911285	     20.58363614	     28.87293659	     75.97666358	     25.27297903	     -5.67931523	     10.90075759	     34.38791365	     85.51066987
      5.00000000	    -19.85299176	      2.43903933	      0.30075285	      0.78848400	      0.82224096	     -0.10711350	     61.85162909	    -11.27456656	      0.78852688	     71.64876829	     32.89966628	     -5.78153563	      0.00000000	     60.47186679	     -6.31983034	     -1.74487682	     70.66521069	     32.70907381	     -2.39449521	      0.00000000	    -21.39197429	     -1.35680150	     -1.06808936	     20.70497632	    -11.36693348	     20.16146963	     29.05116830	     78.07542309	     25.85733457	     -4.91542116	     11.63031337	     31.87991455	     86.50718891
      5.01666670	    -20.38415970	      2.79269168	      0.07509081	      0.78935720	      0.82374625	     -0.10590889	     61.85054496	    -11.50068294	      0.83709354	     70.58300419	     32.58681347	     -5.20262263	      0.00000000	     60.36958584	     -6.34784511	     -2.42065720	     69.69827345	     32.23863671	     -1.84812452	      0.00000000	    -21.10170489	     -1.55950751	     -1.82988291	     20.91656987	    -10.61147845	     19.74711547	     29.84458028	     78.74144226	     25.29966251	     -5.16131137	     11.81940848	     30.82104512	     86.83390462
      5.03333330	    -20.90864044	      2.95046233	     -0.10014106	      0.78988999	      0.83450304	     -0.10514084	     61.13741436	    -11.49104234	      0.61277503	     68.43534054	     31.75821649	     -4.72039847	      0.00000000	     59.77260417	     -6.39039693	     -2.91360071	     67.92528952	     31.23739414	     -1.48812448	      0.00000000	    -20.51027464	     -1.61816229	     -1.80346409	     20.57970215	    -10.38669044	     19.69727293	     29.90757215	     78.87738679	     24.67513603	     -5.17531393	     11.86862557	     30.46688750	     86.89800974
      5.05000000	    -20.91569982	      3.31503121	     -0.38800821	      0.79032308	      0.84361980	     -0.10380821	     59.76640255	    -11.28447056	      0.72081491	     65.98041844	     30.56351125	     -5.07260924	      0.00000000	     58.21342463	     -6.35677751	     -3.60679825	     65.45512356	     29.53218215	     -1.81252714	      0.00000000	    -20.23814602	     -2.01217022	     -2.27580420	     20.31408701	     -9.87250775	     19.01172612	     30.10940099	     79.61225682	     24.35690581	     -5.63025836	     11.84825283	     29.06444848	     87.21328470
      5.06666670	    -20.63710850	      3.35407002	     -0.54565334	      0.79625576	      0.85506348	     -0.10056240	     57.62977998	    -10.88455234	      0.53229323	     63.23867940	     29.17285673	     -5.51930395	      0.00000000	     56.04938073	     -6.46380572	     -4.02466037	     62.65352143	     27.99541028	     -1.84369474	      0.00000000	    -19.78569407	     -2.12876596	     -2.18011599	     19.25361810	     -9.62731912	     18.22134568	     29.83030130	     80.49262003	     23.61839737	     -6.01418990	     11.80092130	     28.20519597	     87.53537443
      5.08333330	    -20.20607488	      3.39387669	     -0.84142128	      0.79637136	      0.86714118	     -0.09734370	     55.58981668	    -10.35094450	      0.42297469	     60.46616202	     27.56507231	     -6.12043580	      0.00000000	     53.80067225	     -6.56984371	     -4.44566507	     59.69529764	     26.45264453	     -1.70640546	      0.00000000	    -19.25295520	     -2.31967491	     -2.11612484	     18.05998888	     -9.29859103	     17.18739890	     29.89106908	     81.45610985	     22.70250463	     -6.61863469	     11.46188419	     27.84012000	     87.80323814
      5.10000000	    -19.80061822	      3.27152795	     -1.01493732	      0.79792343	      0.88256569	     -0.09488477	     53.15231590	     -9.69743743	      0.20970806	     57.05904373	     25.94274385	     -6.49207900	      0.00000000	     51.43846126	     -6.56395781	     -4.43176806	     56.24492553	     24.26897907	     -2.27816178	      0.00000000	    -18.52128066	     -2.32143023	     -1.94208826	     16.71310319	     -9.10733892	     16.16789374	     29.75047141	     82.23120993	     21.66613456	     -7.34326186	     10.88999277	     27.82703787	     87.95566043
